<svg xmlns="http://www.w3.org/2000/svg" width="255.818" height="64.489" viewBox="0 0 255.818 64.489"><defs><style>.a{fill:#fff;}</style></defs><g transform="translate(236 -326)"><g transform="translate(-236 326)"><path class="a" d="M2947.474-325.538h-92.33c-11.394,0-20.663,9.783-20.663,21.2v43.285h112.993a20.711,20.711,0,0,0,20.663-20.711c.019-17.169,3.887-42.877-20.663-43.778m-78.434,27.261c3.06.5,7.047,1.27,10.432,1.932,8.655,1.693,9.134,11.626,4.347,15.824-7.2,5.377-31.195,4.841-31.553-5.956a1.034,1.034,0,0,1,1.167-1.191c1.007.064,8.937.4,11.053.487,3.01.043,1.682,1.169,3.979,1.778,3.481.808,5.709.033,5.449-1.674-.285-1.87-2.886-1.755-8.87-2.359-18.448-1.123-17.154-20.909,3.64-19.808,13.618-.251,17.247,5.827,18.076,8.754.326,1.156-.387,1.354-1.249,1.354-1.7-.28-11.774-.1-13.484-1.295-3.83-3.822-11.991.606-2.988,2.153m22.565-9.564a1.409,1.409,0,0,1,1.408-1.411h7.233c2.106-.06,1.239,3.363,1.407,4.567a1.409,1.409,0,0,1-1.407,1.411h-7.233C2890.907-303.214,2891.774-306.637,2891.605-307.841Zm10.152,29.049a1.482,1.482,0,0,1-1.48,1.483h-7.089a1.481,1.481,0,0,1-1.48-1.483v-21.357a1.482,1.482,0,0,1,1.48-1.484h7.088a1.482,1.482,0,0,1,1.48,1.484Zm48.558-28.637v28.624a1.482,1.482,0,0,1-1.48,1.484h-7.048a1.482,1.482,0,0,1-1.48-1.484v-18.572c-2.146,6.429-6.475,17.471-6.84,18.554-.508,1.5-1.225,1.5-2.337,1.5l-5.573.009c-3.085.2-6.422-14.676-8.932-20.061v18.572a1.482,1.482,0,0,1-1.48,1.484H2908.1a1.482,1.482,0,0,1-1.48-1.484v-28.624l.013.013a1.528,1.528,0,0,1,1.467-1.819h13.211c1.437,0,2.019.09,2.458,1.454.392,1.217,4.011,12.968,4.71,15.07.744-2.254,4.3-13.864,4.691-15.07.438-1.364,1.02-1.454,2.458-1.454h13.212A1.545,1.545,0,0,1,2950.316-307.429Z" transform="translate(-2712.552 325.538)"/><path class="a" d="M2487.362-230.178c-14.052,4.945-14.028-17.983,0-12.965v3.7c-2.282-2.837-7.588-1.258-7.359,2.805-.009,3.785,4.223,5.768,7.359,2.784Z" transform="translate(-2476.832 271.709)"/><path class="a" d="M2538.627-231.845H2533.4l-1.058,2.618h-3.316l5.576-13.859h2.923l5.451,13.859h-3.316Zm-.871-2.452-1.7-4.654-1.721,4.654Z" transform="translate(-2511.235 271.195)"/><path class="a" d="M2597.509-243.135c5.154-.506,6.63,6.828,1.72,8.186l4.25,5.673h-3.9l-3.731-5.465v5.465h-3.192v-13.859Zm-1.658,6.3c1.328.067,3.128-.047,3.15-1.953-.04-1.944-1.9-1.865-3.15-1.849Z" transform="translate(-2553.171 271.244)"/><path class="a" d="M2648.682-240.385v11.158h-3.192v-11.158h-3.006v-2.7h9.2v2.7Z" transform="translate(-2586.01 271.196)"/><path class="a" d="M2695.276-240.056h-5.223L2689-237.438h-3.316l5.576-13.859h2.922l5.451,13.859h-3.316Zm1.451-14.357c-2.162,4.405-4.989-.843-6.2,1.766l-1.471-1.039c1.905-4.432,4.976.805,6.2-1.766Zm-2.322,11.906-1.7-4.654-1.721,4.654Z" transform="translate(-2614.48 279.406)"/><path class="a" d="M2758.969-242.175c6.861,7.394-3.644,16.814-10.738,10.43-6.774-7.052,3.42-16.916,10.738-10.43m-8.395,2.119c-3.87,4.06,1.889,10.086,6.074,6.212,3.772-3.978-1.753-10.092-6.074-6.212" transform="translate(-2654.242 271.988)"/></g></g></svg>